<svg id="svg" version="1.1" xmlns="http://www.w3.org/2000/svg" xmlns:xlink="http://www.w3.org/1999/xlink" width="400" height="400" viewBox="0, 0, 400,400"><g id="svgg"><path id="path0" d="M186.445 20.042 C 97.818 26.413,26.173 98.369,20.010 187.200 C 12.757 291.742,95.353 380.400,200.000 380.400 C 324.823 380.400,411.689 256.889,369.777 139.000 C 356.188 100.777,329.605 68.012,294.600 46.340 C 262.644 26.555,224.581 17.300,186.445 20.042 M214.800 48.443 C 283.451 54.961,339.586 107.778,350.371 176.000 C 366.535 278.250,278.155 366.633,176.000 350.378 C 114.603 340.609,65.159 294.251,51.448 233.600 C 50.516 229.478,50.045 226.744,48.761 218.024 C 47.578 209.992,47.579 189.987,48.762 181.976 C 48.971 180.559,49.438 177.420,49.800 175.000 C 57.833 121.200,99.109 72.782,151.600 55.583 C 162.274 52.085,168.109 50.776,182.000 48.761 C 189.597 47.660,204.979 47.510,214.800 48.443 " stroke="none" fill="#1c84d4" fill-rule="evenodd"></path><path id="path1" d="M282.268 138.625 C 280.985 139.375,277.925 141.048,275.468 142.344 C 273.011 143.641,269.830 145.329,268.400 146.097 C 260.582 150.293,258.415 151.466,256.600 152.481 C 255.500 153.096,253.975 153.889,253.211 154.242 C 252.448 154.596,250.468 155.648,248.811 156.581 C 247.155 157.514,243.910 159.274,241.600 160.491 C 239.290 161.708,236.140 163.385,234.600 164.217 C 233.060 165.049,230.540 166.397,229.000 167.212 C 227.460 168.027,224.693 169.527,222.851 170.547 C 221.010 171.566,219.424 172.400,219.328 172.400 C 219.233 172.400,216.554 173.840,213.376 175.600 C 210.197 177.360,207.507 178.800,207.396 178.800 C 207.286 178.800,204.988 180.015,202.288 181.500 C 196.722 184.563,195.553 185.188,190.800 187.643 C 188.930 188.609,187.268 189.580,187.106 189.800 C 186.944 190.020,186.809 196.618,186.806 204.462 L 186.800 218.724 188.500 219.709 C 189.435 220.251,191.820 221.550,193.800 222.595 C 195.780 223.640,198.300 224.990,199.400 225.594 C 201.934 226.986,212.617 232.686,217.600 235.306 C 221.941 237.588,229.109 241.467,230.000 242.018 C 230.330 242.221,231.147 242.636,231.816 242.939 C 232.485 243.241,234.465 244.301,236.216 245.293 C 239.278 247.027,241.107 248.006,251.200 253.311 C 253.730 254.640,258.004 256.960,260.698 258.464 C 263.392 259.969,265.697 261.200,265.821 261.200 C 265.945 261.200,268.646 262.640,271.824 264.400 C 275.003 266.160,277.669 267.600,277.750 267.600 C 277.831 267.600,279.571 268.523,281.616 269.652 C 285.929 272.031,285.292 272.303,288.295 266.800 C 289.316 264.930,291.081 261.870,292.219 260.000 C 293.356 258.130,294.681 255.880,295.162 255.000 C 295.643 254.120,296.659 252.346,297.419 251.057 C 298.178 249.769,298.800 248.671,298.800 248.617 C 298.800 248.564,297.675 247.936,296.300 247.222 C 294.925 246.509,292.720 245.350,291.400 244.647 C 287.638 242.644,278.884 238.016,275.800 236.400 C 274.260 235.593,271.650 234.209,270.000 233.324 C 268.350 232.439,264.480 230.403,261.400 228.800 C 258.320 227.197,255.620 225.753,255.400 225.591 C 255.180 225.430,252.930 224.219,250.400 222.901 C 247.870 221.582,244.450 219.789,242.800 218.914 C 232.421 213.415,225.666 209.854,220.200 207.003 C 217.780 205.740,215.668 204.587,215.507 204.441 C 215.346 204.294,217.776 202.869,220.907 201.274 C 226.364 198.494,230.459 196.344,237.400 192.616 C 241.294 190.524,246.579 187.726,251.400 185.204 C 255.074 183.282,257.102 182.206,268.000 176.394 C 271.410 174.576,275.910 172.187,278.000 171.087 C 280.090 169.986,283.060 168.419,284.600 167.605 C 286.140 166.791,289.740 164.907,292.600 163.419 C 299.478 159.842,299.142 160.519,296.381 155.800 C 295.094 153.600,293.210 150.360,292.194 148.600 C 284.688 135.596,285.704 136.616,282.268 138.625 " stroke="none" fill="#646464" fill-rule="evenodd"></path><path id="path2" d="M188.004 12.268 C 185.916 12.359,184.035 12.605,183.824 12.816 C 183.613 13.027,182.638 13.200,181.659 13.200 C 178.980 13.200,168.689 14.376,167.985 14.763 C 167.646 14.949,166.566 15.221,165.585 15.367 C 160.331 16.151,158.160 16.557,157.800 16.822 C 157.580 16.984,155.870 17.414,154.000 17.778 C 152.130 18.141,150.240 18.601,149.800 18.799 C 149.360 18.998,147.830 19.453,146.400 19.811 C 144.970 20.169,143.503 20.618,143.139 20.810 C 142.776 21.001,141.336 21.453,139.939 21.815 C 138.543 22.176,137.220 22.612,137.000 22.783 C 136.780 22.954,135.610 23.399,134.400 23.771 C 133.190 24.143,131.722 24.707,131.138 25.024 C 130.554 25.341,129.883 25.600,129.647 25.600 C 129.411 25.600,127.872 26.230,126.227 27.000 C 124.583 27.770,123.112 28.400,122.960 28.400 C 122.455 28.400,108.425 35.554,106.906 36.586 C 106.086 37.144,105.264 37.600,105.079 37.600 C 104.895 37.600,103.959 38.140,103.000 38.800 C 102.041 39.460,101.155 40.000,101.032 40.000 C 100.909 40.000,99.625 40.810,98.179 41.800 C 96.733 42.790,95.438 43.600,95.302 43.600 C 95.166 43.600,93.763 44.590,92.183 45.800 C 90.603 47.010,89.107 48.000,88.859 48.000 C 88.610 48.000,88.182 48.360,87.907 48.800 C 87.632 49.240,87.252 49.600,87.063 49.600 C 86.771 49.600,83.697 52.005,78.200 56.533 C 72.507 61.223,61.223 72.507,56.533 78.200 C 52.005 83.697,49.600 86.771,49.600 87.063 C 49.600 87.252,49.240 87.632,48.800 87.907 C 48.360 88.182,48.000 88.610,48.000 88.859 C 48.000 89.107,47.010 90.603,45.800 92.183 C 44.590 93.763,43.600 95.166,43.600 95.302 C 43.600 95.438,42.790 96.733,41.800 98.179 C 40.810 99.625,40.000 100.909,40.000 101.032 C 40.000 101.155,39.460 102.041,38.800 103.000 C 38.140 103.959,37.600 104.895,37.600 105.079 C 37.600 105.264,37.139 106.092,36.576 106.921 C 35.501 108.503,28.000 123.277,28.000 123.812 C 28.000 123.983,27.460 125.265,26.800 126.662 C 26.140 128.059,25.600 129.399,25.600 129.639 C 25.600 129.880,25.341 130.554,25.024 131.138 C 24.707 131.722,24.143 133.190,23.771 134.400 C 23.399 135.610,22.954 136.780,22.783 137.000 C 22.612 137.220,22.176 138.543,21.815 139.939 C 21.453 141.336,21.001 142.776,20.810 143.139 C 20.618 143.503,20.169 144.970,19.811 146.400 C 19.453 147.830,18.998 149.360,18.799 149.800 C 18.601 150.240,18.141 152.130,17.778 154.000 C 17.414 155.870,16.984 157.580,16.822 157.800 C 16.557 158.160,16.151 160.331,15.367 165.585 C 15.221 166.566,14.949 167.646,14.763 167.985 C 14.376 168.689,13.200 178.980,13.200 181.659 C 13.200 182.638,12.975 183.665,12.700 183.940 C 11.975 184.665,11.975 215.335,12.700 216.060 C 12.975 216.335,13.200 217.362,13.200 218.341 C 13.200 221.020,14.376 231.311,14.763 232.015 C 14.949 232.354,15.221 233.434,15.367 234.415 C 16.151 239.669,16.557 241.840,16.822 242.200 C 16.984 242.420,17.414 244.130,17.778 246.000 C 18.141 247.870,18.601 249.760,18.799 250.200 C 18.998 250.640,19.453 252.170,19.811 253.600 C 20.169 255.030,20.618 256.497,20.810 256.861 C 21.001 257.224,21.453 258.664,21.815 260.061 C 22.176 261.457,22.612 262.780,22.783 263.000 C 22.954 263.220,23.399 264.390,23.771 265.600 C 24.143 266.810,24.707 268.278,25.024 268.862 C 25.341 269.446,25.600 270.120,25.600 270.361 C 25.600 270.601,26.140 271.941,26.800 273.338 C 27.460 274.735,28.000 276.017,28.000 276.188 C 28.000 276.723,35.501 291.497,36.576 293.079 C 37.139 293.908,37.600 294.736,37.600 294.921 C 37.600 295.105,38.140 296.041,38.800 297.000 C 39.460 297.959,40.000 298.845,40.000 298.968 C 40.000 299.091,40.810 300.375,41.800 301.821 C 42.790 303.267,43.600 304.562,43.600 304.698 C 43.600 304.834,44.590 306.237,45.800 307.817 C 47.010 309.397,48.000 310.893,48.000 311.141 C 48.000 311.390,48.360 311.818,48.800 312.093 C 49.240 312.368,49.600 312.748,49.600 312.937 C 49.600 313.229,52.005 316.303,56.533 321.800 C 61.223 327.493,72.507 338.777,78.200 343.467 C 83.697 347.995,86.771 350.400,87.063 350.400 C 87.252 350.400,87.632 350.760,87.907 351.200 C 88.182 351.640,88.610 352.000,88.859 352.000 C 89.107 352.000,90.603 352.990,92.183 354.200 C 93.763 355.410,95.166 356.400,95.302 356.400 C 95.438 356.400,96.733 357.210,98.179 358.200 C 99.625 359.190,100.909 360.000,101.032 360.000 C 101.155 360.000,102.041 360.540,103.000 361.200 C 103.959 361.860,104.895 362.400,105.079 362.400 C 105.264 362.400,106.086 362.856,106.906 363.414 C 108.425 364.446,122.455 371.600,122.960 371.600 C 123.112 371.600,124.583 372.230,126.227 373.000 C 127.872 373.770,129.411 374.400,129.647 374.400 C 129.883 374.400,130.554 374.659,131.138 374.976 C 131.722 375.293,133.190 375.857,134.400 376.229 C 135.610 376.601,136.780 377.046,137.000 377.217 C 137.220 377.388,138.543 377.824,139.939 378.185 C 141.336 378.547,142.776 378.999,143.139 379.190 C 143.503 379.382,144.970 379.831,146.400 380.189 C 147.830 380.547,149.360 381.002,149.800 381.201 C 150.240 381.399,152.130 381.859,154.000 382.222 C 155.870 382.586,157.580 383.016,157.800 383.178 C 158.160 383.443,160.331 383.849,165.585 384.633 C 166.566 384.779,167.646 385.051,167.985 385.237 C 168.689 385.624,178.980 386.800,181.659 386.800 C 182.638 386.800,183.665 387.025,183.940 387.300 C 184.665 388.025,215.335 388.025,216.060 387.300 C 216.335 387.025,217.362 386.800,218.341 386.800 C 221.020 386.800,231.311 385.624,232.015 385.237 C 232.354 385.051,233.434 384.779,234.415 384.633 C 239.669 383.849,241.840 383.443,242.200 383.178 C 242.420 383.016,244.130 382.586,246.000 382.222 C 247.870 381.859,249.760 381.399,250.200 381.201 C 250.640 381.002,252.170 380.547,253.600 380.189 C 255.030 379.831,256.497 379.382,256.861 379.190 C 257.224 378.999,258.664 378.547,260.061 378.185 C 261.457 377.824,262.780 377.388,263.000 377.217 C 263.220 377.046,264.390 376.601,265.600 376.229 C 266.810 375.857,268.278 375.293,268.862 374.976 C 269.446 374.659,270.117 374.400,270.353 374.400 C 270.589 374.400,272.128 373.770,273.773 373.000 C 275.417 372.230,276.888 371.600,277.040 371.600 C 277.545 371.600,291.575 364.446,293.094 363.414 C 293.914 362.856,294.736 362.400,294.921 362.400 C 295.105 362.400,296.041 361.860,297.000 361.200 C 297.959 360.540,298.845 360.000,298.968 360.000 C 299.091 360.000,300.375 359.190,301.821 358.200 C 303.267 357.210,304.562 356.400,304.698 356.400 C 304.834 356.400,306.237 355.410,307.817 354.200 C 309.397 352.990,310.893 352.000,311.141 352.000 C 311.390 352.000,311.818 351.640,312.093 351.200 C 312.368 350.760,312.748 350.400,312.937 350.400 C 313.229 350.400,316.303 347.995,321.800 343.467 C 327.493 338.777,338.777 327.493,343.467 321.800 C 347.995 316.303,350.400 313.229,350.400 312.937 C 350.400 312.748,350.760 312.368,351.200 312.093 C 351.640 311.818,352.000 311.390,352.000 311.141 C 352.000 310.893,352.990 309.397,354.200 307.817 C 355.410 306.237,356.400 304.834,356.400 304.698 C 356.400 304.562,357.210 303.267,358.200 301.821 C 359.190 300.375,360.000 299.091,360.000 298.968 C 360.000 298.845,360.540 297.959,361.200 297.000 C 361.860 296.041,362.400 295.105,362.400 294.921 C 362.400 294.736,362.861 293.908,363.424 293.079 C 364.499 291.497,372.000 276.723,372.000 276.188 C 372.000 276.017,372.540 274.735,373.200 273.338 C 373.860 271.941,374.400 270.601,374.400 270.361 C 374.400 270.120,374.659 269.446,374.976 268.862 C 375.293 268.278,375.857 266.810,376.229 265.600 C 376.601 264.390,377.046 263.220,377.217 263.000 C 377.388 262.780,377.824 261.457,378.185 260.061 C 378.547 258.664,378.999 257.224,379.190 256.861 C 379.382 256.497,379.831 255.030,380.189 253.600 C 380.547 252.170,381.002 250.640,381.201 250.200 C 381.399 249.760,381.859 247.870,382.222 246.000 C 382.586 244.130,383.016 242.420,383.178 242.200 C 383.443 241.840,383.849 239.669,384.633 234.415 C 384.779 233.434,385.051 232.354,385.237 232.015 C 385.608 231.339,386.800 221.065,386.800 218.541 C 386.800 217.672,387.025 216.735,387.300 216.460 C 388.025 215.735,388.025 184.265,387.300 183.540 C 387.025 183.265,386.800 182.328,386.800 181.459 C 386.800 178.935,385.608 168.661,385.237 167.985 C 385.051 167.646,384.779 166.566,384.633 165.585 C 383.849 160.331,383.443 158.160,383.178 157.800 C 383.016 157.580,382.586 155.870,382.222 154.000 C 381.859 152.130,381.399 150.240,381.201 149.800 C 381.002 149.360,380.547 147.830,380.189 146.400 C 379.831 144.970,379.382 143.503,379.190 143.139 C 378.999 142.776,378.547 141.336,378.185 139.939 C 377.824 138.543,377.388 137.220,377.217 137.000 C 377.046 136.780,376.601 135.610,376.229 134.400 C 375.857 133.190,375.293 131.722,374.976 131.138 C 374.659 130.554,374.400 129.880,374.400 129.639 C 374.400 129.399,373.860 128.059,373.200 126.662 C 372.540 125.265,372.000 123.983,372.000 123.812 C 372.000 123.277,364.499 108.503,363.424 106.921 C 362.861 106.092,362.400 105.264,362.400 105.079 C 362.400 104.895,361.860 103.959,361.200 103.000 C 360.540 102.041,360.000 101.155,360.000 101.032 C 360.000 100.909,359.190 99.625,358.200 98.179 C 357.210 96.733,356.400 95.438,356.400 95.302 C 356.400 95.166,355.410 93.763,354.200 92.183 C 352.990 90.603,352.000 89.107,352.000 88.859 C 352.000 88.610,351.640 88.182,351.200 87.907 C 350.760 87.632,350.400 87.252,350.400 87.063 C 350.400 86.771,347.995 83.697,343.467 78.200 C 338.777 72.507,327.493 61.223,321.800 56.533 C 316.303 52.005,313.229 49.600,312.937 49.600 C 312.748 49.600,312.368 49.240,312.093 48.800 C 311.818 48.360,311.390 48.000,311.141 48.000 C 310.893 48.000,309.397 47.010,307.817 45.800 C 306.237 44.590,304.834 43.600,304.698 43.600 C 304.562 43.600,303.267 42.790,301.821 41.800 C 300.375 40.810,299.091 40.000,298.968 40.000 C 298.845 40.000,297.959 39.460,297.000 38.800 C 296.041 38.140,295.105 37.600,294.921 37.600 C 294.736 37.600,293.914 37.144,293.094 36.586 C 291.575 35.554,277.545 28.400,277.040 28.400 C 276.888 28.400,275.417 27.770,273.773 27.000 C 272.128 26.230,270.589 25.600,270.353 25.600 C 270.117 25.600,269.446 25.341,268.862 25.024 C 268.278 24.707,266.810 24.143,265.600 23.771 C 264.390 23.399,263.220 22.954,263.000 22.783 C 262.780 22.612,261.457 22.176,260.061 21.815 C 258.664 21.453,257.224 21.001,256.861 20.810 C 256.497 20.618,255.030 20.169,253.600 19.811 C 252.170 19.453,250.640 18.998,250.200 18.799 C 249.760 18.601,247.870 18.141,246.000 17.778 C 244.130 17.414,242.420 16.984,242.200 16.822 C 241.840 16.557,239.669 16.151,234.415 15.367 C 233.434 15.221,232.354 14.949,232.015 14.763 C 231.311 14.376,221.020 13.200,218.341 13.200 C 217.362 13.200,216.374 13.014,216.146 12.786 C 215.710 12.350,194.956 11.968,188.004 12.268 M212.800 20.021 C 251.731 22.791,288.956 38.186,318.000 63.529 C 332.244 75.958,343.438 89.143,354.058 106.000 C 395.611 171.956,387.181 262.352,334.032 320.735 C 237.427 426.855,62.786 384.658,25.550 246.200 C -6.395 127.418,89.765 11.266,212.800 20.021 M190.800 48.002 C 185.199 48.315,183.658 48.491,175.000 49.803 C 112.366 59.291,59.128 112.527,49.800 175.000 C 49.438 177.420,48.971 180.559,48.762 181.976 C 47.579 189.987,47.578 209.992,48.761 218.024 C 50.045 226.744,50.516 229.478,51.448 233.600 C 69.132 311.827,144.629 362.918,224.000 350.371 C 288.877 340.115,340.122 288.875,350.383 224.000 C 365.603 127.770,288.323 42.540,190.800 48.002 M219.200 56.382 C 221.290 56.640,223.360 56.996,223.800 57.173 C 224.240 57.351,226.580 57.806,229.000 58.185 C 231.420 58.565,233.580 59.010,233.800 59.175 C 234.020 59.341,235.730 59.795,237.600 60.185 C 239.470 60.575,241.180 61.025,241.400 61.185 C 241.620 61.344,242.970 61.792,244.400 62.180 C 245.830 62.569,247.180 63.014,247.400 63.171 C 247.620 63.328,248.610 63.696,249.600 63.989 C 250.590 64.282,252.390 64.967,253.600 65.511 C 254.810 66.055,256.520 66.817,257.400 67.204 C 259.924 68.314,269.091 72.897,270.994 74.000 C 271.943 74.550,273.434 75.397,274.308 75.882 C 276.760 77.243,283.473 81.865,286.465 84.252 C 287.946 85.433,289.282 86.400,289.433 86.400 C 290.811 86.400,313.600 109.197,313.600 110.575 C 313.600 110.722,314.567 112.054,315.748 113.535 C 318.073 116.448,322.743 123.215,324.042 125.552 C 324.484 126.348,325.457 128.080,326.202 129.400 C 327.628 131.924,331.602 139.878,332.797 142.600 C 333.184 143.480,333.945 145.190,334.489 146.400 C 335.033 147.610,335.718 149.410,336.011 150.400 C 336.304 151.390,336.672 152.380,336.829 152.600 C 336.986 152.820,337.431 154.170,337.820 155.600 C 338.208 157.030,338.657 158.380,338.819 158.600 C 338.981 158.820,339.412 160.440,339.777 162.200 C 340.143 163.960,340.598 165.689,340.789 166.043 C 340.980 166.397,341.444 168.647,341.820 171.043 C 342.196 173.439,342.651 175.760,342.830 176.200 C 344.709 180.807,344.709 219.193,342.830 223.800 C 342.651 224.240,342.196 226.561,341.820 228.957 C 341.444 231.353,340.980 233.603,340.789 233.957 C 340.598 234.311,340.143 236.040,339.777 237.800 C 339.412 239.560,338.981 241.180,338.819 241.400 C 338.657 241.620,338.208 242.970,337.820 244.400 C 337.431 245.830,336.986 247.180,336.829 247.400 C 336.672 247.620,336.304 248.610,336.011 249.600 C 335.718 250.590,335.033 252.390,334.489 253.600 C 333.945 254.810,333.184 256.520,332.797 257.400 C 331.602 260.122,327.628 268.076,326.202 270.600 C 325.457 271.920,324.484 273.652,324.042 274.448 C 322.743 276.785,318.073 283.552,315.748 286.465 C 314.567 287.946,313.600 289.278,313.600 289.425 C 313.600 290.803,290.811 313.600,289.433 313.600 C 289.282 313.600,287.946 314.567,286.465 315.748 C 283.473 318.135,276.760 322.757,274.308 324.118 C 273.434 324.603,271.943 325.450,270.994 326.000 C 269.091 327.103,259.924 331.686,257.400 332.796 C 256.520 333.183,254.810 333.945,253.600 334.489 C 252.390 335.033,250.590 335.718,249.600 336.011 C 248.610 336.304,247.620 336.672,247.400 336.829 C 247.180 336.986,245.830 337.431,244.400 337.820 C 242.970 338.208,241.620 338.657,241.400 338.819 C 241.180 338.981,239.560 339.412,237.800 339.777 C 236.040 340.143,234.311 340.598,233.957 340.789 C 233.603 340.980,231.353 341.444,228.957 341.820 C 226.561 342.196,224.240 342.651,223.800 342.830 C 219.193 344.709,180.807 344.709,176.200 342.830 C 175.760 342.651,173.439 342.196,171.043 341.820 C 168.647 341.444,166.397 340.980,166.043 340.789 C 165.689 340.598,163.960 340.143,162.200 339.777 C 160.440 339.412,158.820 338.981,158.600 338.819 C 158.380 338.657,157.030 338.208,155.600 337.820 C 154.170 337.431,152.820 336.986,152.600 336.829 C 152.380 336.672,151.390 336.304,150.400 336.011 C 149.410 335.718,147.610 335.033,146.400 334.489 C 145.190 333.945,143.480 333.183,142.600 332.796 C 140.076 331.686,130.909 327.103,129.006 326.000 C 128.057 325.450,126.566 324.603,125.692 324.118 C 123.240 322.757,116.527 318.135,113.535 315.748 C 112.054 314.567,110.718 313.600,110.567 313.600 C 109.189 313.600,86.400 290.803,86.400 289.425 C 86.400 289.278,85.433 287.946,84.252 286.465 C 81.927 283.552,77.257 276.785,75.958 274.448 C 75.516 273.652,74.543 271.920,73.798 270.600 C 72.372 268.076,68.398 260.122,67.203 257.400 C 66.816 256.520,66.055 254.810,65.511 253.600 C 64.967 252.390,64.282 250.590,63.989 249.600 C 63.696 248.610,63.328 247.620,63.171 247.400 C 63.014 247.180,62.569 245.830,62.180 244.400 C 61.792 242.970,61.343 241.620,61.181 241.400 C 61.019 241.180,60.588 239.560,60.223 237.800 C 59.857 236.040,59.402 234.311,59.211 233.957 C 59.020 233.603,58.556 231.353,58.180 228.957 C 57.804 226.561,57.349 224.240,57.170 223.800 C 55.291 219.193,55.291 180.807,57.170 176.200 C 57.349 175.760,57.804 173.439,58.180 171.043 C 58.556 168.647,59.020 166.397,59.211 166.043 C 59.402 165.689,59.857 163.960,60.223 162.200 C 60.588 160.440,61.019 158.820,61.181 158.600 C 61.343 158.380,61.792 157.030,62.180 155.600 C 62.569 154.170,63.014 152.820,63.171 152.600 C 63.328 152.380,63.696 151.390,63.989 150.400 C 64.282 149.410,64.967 147.610,65.511 146.400 C 66.055 145.190,66.816 143.480,67.203 142.600 C 68.398 139.878,72.372 131.924,73.798 129.400 C 74.543 128.080,75.516 126.348,75.958 125.552 C 77.257 123.215,81.927 116.448,84.252 113.535 C 85.433 112.054,86.400 110.722,86.400 110.575 C 86.400 109.197,109.189 86.400,110.567 86.400 C 110.718 86.400,112.054 85.433,113.535 84.252 C 116.527 81.865,123.240 77.243,125.692 75.882 C 126.566 75.397,128.057 74.550,129.006 74.000 C 130.909 72.897,140.076 68.314,142.600 67.204 C 143.480 66.817,145.190 66.055,146.400 65.511 C 147.610 64.967,149.410 64.282,150.400 63.989 C 151.390 63.696,152.380 63.328,152.600 63.171 C 152.820 63.014,154.170 62.569,155.600 62.180 C 157.030 61.792,158.380 61.344,158.600 61.185 C 158.820 61.025,160.530 60.575,162.400 60.185 C 164.270 59.795,165.980 59.341,166.200 59.175 C 166.420 59.010,168.580 58.565,171.000 58.185 C 173.420 57.806,175.760 57.348,176.200 57.167 C 176.640 56.986,178.980 56.648,181.400 56.415 C 183.820 56.183,186.430 55.923,187.200 55.838 C 190.199 55.506,215.607 55.938,219.200 56.382 M281.312 131.598 C 279.524 131.975,275.697 133.753,271.774 136.030 C 269.152 137.552,267.902 138.227,262.600 140.984 C 260.620 142.014,257.380 143.736,255.400 144.810 C 253.420 145.885,250.360 147.508,248.600 148.417 C 246.840 149.327,245.170 150.261,244.890 150.493 C 244.609 150.725,242.899 151.674,241.090 152.603 C 237.506 154.441,231.196 157.767,227.400 159.819 C 226.080 160.533,223.398 161.949,221.440 162.966 C 219.482 163.983,216.872 165.398,215.640 166.111 C 213.144 167.556,211.831 168.263,206.600 170.984 C 204.620 172.014,201.380 173.737,199.400 174.813 C 197.420 175.888,194.603 177.387,193.139 178.143 C 191.676 178.899,189.789 179.986,188.946 180.559 C 188.104 181.132,187.202 181.600,186.943 181.600 C 185.992 181.600,182.471 184.792,181.352 186.668 L 180.200 188.600 180.200 204.200 C 180.200 218.311,180.267 219.915,180.898 221.000 C 181.281 221.660,181.596 222.385,181.598 222.612 C 181.601 223.142,184.206 225.603,185.559 226.354 C 187.438 227.397,191.740 229.672,195.090 231.394 C 196.899 232.324,198.609 233.275,198.890 233.507 C 199.170 233.739,200.840 234.673,202.600 235.583 C 204.360 236.492,207.420 238.115,209.400 239.190 C 211.380 240.264,214.620 241.986,216.600 243.016 C 221.831 245.737,223.144 246.444,225.640 247.889 C 226.872 248.602,229.482 250.017,231.440 251.034 C 233.398 252.051,236.080 253.468,237.400 254.182 C 243.452 257.457,247.665 259.675,250.800 261.237 C 252.670 262.169,254.470 263.156,254.800 263.431 C 255.130 263.706,256.722 264.621,258.338 265.465 C 259.953 266.309,263.013 267.937,265.138 269.082 C 267.262 270.227,269.744 271.532,270.654 271.981 C 271.563 272.429,273.723 273.592,275.454 274.563 C 277.184 275.535,279.277 276.456,280.104 276.610 C 280.932 276.765,281.707 277.050,281.828 277.245 C 282.130 277.734,286.694 277.694,287.000 277.200 C 287.136 276.980,287.620 276.800,288.076 276.800 C 289.483 276.800,291.383 275.327,292.831 273.115 C 294.788 270.125,295.116 269.578,295.902 268.000 C 296.286 267.230,296.738 266.498,296.906 266.373 C 297.074 266.248,297.543 265.528,297.948 264.773 C 299.706 261.494,300.899 259.372,301.196 259.000 C 303.318 256.338,304.160 253.741,304.180 249.800 C 304.212 243.379,303.623 242.723,292.800 237.111 C 290.710 236.027,287.020 234.095,284.600 232.817 C 280.243 230.517,276.716 228.670,268.205 224.232 C 265.787 222.971,263.609 221.773,263.364 221.570 C 263.120 221.367,261.138 220.288,258.960 219.171 C 256.782 218.054,253.020 216.095,250.600 214.817 C 248.180 213.540,244.490 211.607,242.400 210.522 C 230.159 204.169,230.299 204.430,237.200 200.872 C 246.445 196.105,250.642 193.869,251.200 193.416 C 251.530 193.148,253.510 192.081,255.600 191.046 C 257.690 190.010,261.200 188.209,263.400 187.042 C 270.011 183.537,274.740 181.048,279.800 178.408 C 282.440 177.030,284.870 175.684,285.200 175.416 C 285.530 175.148,287.510 174.079,289.600 173.041 C 302.357 166.704,303.745 165.642,304.213 161.856 C 304.773 157.334,304.286 154.957,301.992 151.000 C 301.354 149.900,300.457 148.235,299.997 147.300 C 299.538 146.365,299.030 145.600,298.869 145.600 C 298.708 145.600,298.356 145.105,298.087 144.500 C 297.510 143.199,296.680 141.748,294.904 138.932 C 294.187 137.795,293.600 136.702,293.600 136.504 C 293.600 133.391,286.416 130.523,281.312 131.598 M288.031 141.400 C 289.305 143.600,291.178 146.840,292.194 148.600 C 293.210 150.360,295.094 153.600,296.381 155.800 C 299.142 160.519,299.478 159.842,292.600 163.419 C 289.740 164.907,286.140 166.791,284.600 167.605 C 283.060 168.419,280.090 169.986,278.000 171.087 C 275.910 172.187,271.410 174.576,268.000 176.394 C 257.102 182.206,255.074 183.282,251.400 185.204 C 246.579 187.726,241.294 190.524,237.400 192.616 C 230.459 196.344,226.364 198.494,220.907 201.274 C 217.776 202.869,215.346 204.294,215.507 204.441 C 215.668 204.587,217.780 205.740,220.200 207.003 C 225.666 209.854,232.421 213.415,242.800 218.914 C 244.450 219.789,247.870 221.582,250.400 222.901 C 252.930 224.219,255.180 225.430,255.400 225.591 C 255.620 225.753,258.320 227.197,261.400 228.800 C 264.480 230.403,268.350 232.439,270.000 233.324 C 271.650 234.209,274.260 235.593,275.800 236.400 C 278.884 238.016,287.638 242.644,291.400 244.647 C 292.720 245.350,294.925 246.509,296.300 247.222 C 297.675 247.936,298.800 248.564,298.800 248.617 C 298.800 248.671,298.178 249.769,297.419 251.057 C 296.659 252.346,295.643 254.120,295.162 255.000 C 294.681 255.880,293.356 258.130,292.219 260.000 C 291.081 261.870,289.316 264.930,288.295 266.800 C 285.292 272.303,285.929 272.031,281.616 269.652 C 279.571 268.523,277.831 267.600,277.750 267.600 C 277.669 267.600,275.003 266.160,271.824 264.400 C 268.646 262.640,265.945 261.200,265.821 261.200 C 265.697 261.200,263.392 259.969,260.698 258.464 C 258.004 256.960,253.730 254.640,251.200 253.311 C 241.107 248.006,239.278 247.027,236.216 245.293 C 234.465 244.301,232.485 243.241,231.816 242.939 C 231.147 242.636,230.330 242.221,230.000 242.018 C 229.109 241.467,221.941 237.588,217.600 235.306 C 212.617 232.686,201.934 226.986,199.400 225.594 C 198.300 224.990,195.780 223.640,193.800 222.595 C 191.820 221.550,189.435 220.251,188.500 219.709 L 186.800 218.724 186.806 204.462 C 186.809 196.618,186.944 190.020,187.106 189.800 C 187.268 189.580,188.930 188.609,190.800 187.643 C 195.553 185.188,196.722 184.563,202.288 181.500 C 204.988 180.015,207.286 178.800,207.396 178.800 C 207.507 178.800,210.197 177.360,213.376 175.600 C 216.554 173.840,219.233 172.400,219.328 172.400 C 219.424 172.400,221.010 171.566,222.851 170.547 C 224.693 169.527,227.460 168.027,229.000 167.212 C 230.540 166.397,233.060 165.049,234.600 164.217 C 236.140 163.385,239.290 161.708,241.600 160.491 C 243.910 159.274,247.155 157.514,248.811 156.581 C 250.468 155.648,252.448 154.596,253.211 154.242 C 253.975 153.889,255.500 153.096,256.600 152.481 C 258.415 151.466,260.582 150.293,268.400 146.097 C 269.830 145.329,273.011 143.641,275.468 142.344 C 277.925 141.048,280.985 139.375,282.268 138.625 C 285.375 136.809,285.370 136.806,288.031 141.400 " stroke="none" fill="#348cd4" fill-rule="evenodd"></path><path id="path3" d="" stroke="none" fill="#2474d8" fill-rule="evenodd"></path><path id="path4" d="" stroke="none" fill="#2474d8" fill-rule="evenodd"></path></g></svg>